<svg viewBox="0 0 1200 280" xmlns="http://www.w3.org/2000/svg" style="font-family:'Segoe UI',system-ui,sans-serif">
  <defs>
    <linearGradient id="bg" x1="0%" y1="0%" x2="100%" y2="100%">
      <stop offset="0%" stop-color="#0f172a"/>
      <stop offset="100%" stop-color="#1e1b4b"/>
    </linearGradient>
    <linearGradient id="accent1" x1="0%" y1="0%" x2="100%" y2="0%">
      <stop offset="0%" stop-color="#38bdf8"/>
      <stop offset="100%" stop-color="#818cf8"/>
    </linearGradient>
    <linearGradient id="accent2" x1="0%" y1="0%" x2="100%" y2="0%">
      <stop offset="0%" stop-color="#34d399"/>
      <stop offset="100%" stop-color="#38bdf8"/>
    </linearGradient>
  </defs>
  <rect width="1200" height="280" fill="url(#bg)"/>
  <g opacity="0.06" stroke="#94a3b8" stroke-width="0.5">
    <line x1="0" y1="40" x2="1200" y2="40"/><line x1="0" y1="80" x2="1200" y2="80"/>
    <line x1="0" y1="120" x2="1200" y2="120"/><line x1="0" y1="160" x2="1200" y2="160"/>
    <line x1="0" y1="200" x2="1200" y2="200"/><line x1="0" y1="240" x2="1200" y2="240"/>
    <line x1="100" y1="0" x2="100" y2="280"/><line x1="200" y1="0" x2="200" y2="280"/>
    <line x1="300" y1="0" x2="300" y2="280"/><line x1="400" y1="0" x2="400" y2="280"/>
    <line x1="500" y1="0" x2="500" y2="280"/><line x1="600" y1="0" x2="600" y2="280"/>
    <line x1="700" y1="0" x2="700" y2="280"/><line x1="800" y1="0" x2="800" y2="280"/>
    <line x1="900" y1="0" x2="900" y2="280"/><line x1="1000" y1="0" x2="1000" y2="280"/>
    <line x1="1100" y1="0" x2="1100" y2="280"/>
  </g>
  <g opacity="0.18">
    <circle cx="1050" cy="50" r="4" fill="#38bdf8"/><circle cx="1080" cy="75" r="3" fill="#818cf8"/>
    <circle cx="1105" cy="105" r="5" fill="#34d399"/><circle cx="1068" cy="135" r="3" fill="#38bdf8"/>
    <circle cx="1092" cy="162" r="4" fill="#818cf8"/><circle cx="1052" cy="192" r="3" fill="#34d399"/>
    <circle cx="1112" cy="215" r="5" fill="#38bdf8"/><circle cx="1078" cy="245" r="3" fill="#818cf8"/>
    <circle cx="1135" cy="78" r="3" fill="#34d399"/><circle cx="1152" cy="118" r="4" fill="#38bdf8"/>
    <circle cx="1142" cy="168" r="3" fill="#818cf8"/><circle cx="1162" cy="222" r="4" fill="#34d399"/>
    <line x1="1050" y1="50" x2="1080" y2="75" stroke="#38bdf8" stroke-width="1" opacity="0.6"/>
    <line x1="1080" y1="75" x2="1105" y2="105" stroke="#818cf8" stroke-width="1" opacity="0.6"/>
    <line x1="1105" y1="105" x2="1068" y2="135" stroke="#34d399" stroke-width="1" opacity="0.6"/>
    <line x1="1068" y1="135" x2="1092" y2="162" stroke="#38bdf8" stroke-width="1" opacity="0.6"/>
    <line x1="1092" y1="162" x2="1052" y2="192" stroke="#818cf8" stroke-width="1" opacity="0.6"/>
    <line x1="1052" y1="192" x2="1112" y2="215" stroke="#34d399" stroke-width="1" opacity="0.6"/>
    <line x1="1112" y1="215" x2="1078" y2="245" stroke="#38bdf8" stroke-width="1" opacity="0.6"/>
    <line x1="1135" y1="78" x2="1152" y2="118" stroke="#34d399" stroke-width="1" opacity="0.6"/>
    <line x1="1152" y1="118" x2="1142" y2="168" stroke="#818cf8" stroke-width="1" opacity="0.6"/>
    <line x1="1142" y1="168" x2="1162" y2="222" stroke="#38bdf8" stroke-width="1" opacity="0.6"/>
  </g>
  <circle cx="58" cy="140" r="90" fill="none" stroke="#38bdf8" stroke-width="0.5" opacity="0.1"/>
  <circle cx="58" cy="140" r="60" fill="none" stroke="#818cf8" stroke-width="0.5" opacity="0.12"/>
  <circle cx="58" cy="140" r="30" fill="none" stroke="#34d399" stroke-width="0.5" opacity="0.15"/>
  <rect x="120" y="62" width="4" height="100" rx="2" fill="url(#accent1)"/>
  <text x="148" y="108" font-size="48" font-weight="800" fill="white" letter-spacing="-1">ICML 2026</text>
  <text x="148" y="150" font-size="28" font-weight="600" fill="url(#accent1)">AI × Biomedical Papers</text>
  <text x="148" y="186" font-size="15" fill="#94a3b8" letter-spacing="0.3">A curated collection of 315 papers at the intersection of artificial intelligence and biomedicine</text>
  <rect x="148" y="208" width="110" height="32" rx="16" fill="#1e3a5f" opacity="0.9"/>
  <text x="203" y="229" font-size="13" font-weight="700" fill="#38bdf8" text-anchor="middle">&#x1f4c4; 315 Papers</text>
  <rect x="270" y="208" width="132" height="32" rx="16" fill="#2d1f5e" opacity="0.9"/>
  <text x="336" y="229" font-size="13" font-weight="700" fill="#818cf8" text-anchor="middle">&#x2b50; 27 Spotlights</text>
  <rect x="414" y="208" width="136" height="32" rx="16" fill="#1a3d35" opacity="0.9"/>
  <text x="482" y="229" font-size="13" font-weight="700" fill="#34d399" text-anchor="middle">&#x1f4bb; 161 with Code</text>
  <rect x="562" y="208" width="128" height="32" rx="16" fill="#2a2560" opacity="0.9"/>
  <text x="626" y="229" font-size="13" font-weight="700" fill="#a78bfa" text-anchor="middle">&#x1f5c2;&#xfe0f; 10 Categories</text>
  <rect x="978" y="18" width="192" height="36" rx="8" fill="#f59e0b" opacity="0.12"/>
  <rect x="978" y="18" width="192" height="36" rx="8" fill="none" stroke="#f59e0b" stroke-width="1" opacity="0.35"/>
  <text x="1074" y="41" font-size="13" font-weight="700" fill="#fbbf24" text-anchor="middle">ICML 2026 &#xb7; Vancouver</text>
</svg>